%TF.GenerationSoftware,KiCad,Pcbnew,8.0.8*%
%TF.CreationDate,2025-02-19T12:39:33-05:00*%
%TF.ProjectId,beeping-easter-egg,62656570-696e-4672-9d65-61737465722d,rev?*%
%TF.SameCoordinates,Original*%
%TF.FileFunction,Legend,Bot*%
%TF.FilePolarity,Positive*%
%FSLAX46Y46*%
G04 Gerber Fmt 4.6, Leading zero omitted, Abs format (unit mm)*
G04 Created by KiCad (PCBNEW 8.0.8) date 2025-02-19 12:39:33*
%MOMM*%
%LPD*%
G01*
G04 APERTURE LIST*
%ADD10C,0.150000*%
%ADD11C,0.120000*%
%ADD12R,2.000000X2.000000*%
%ADD13C,2.000000*%
%ADD14R,1.700000X1.700000*%
%ADD15O,1.700000X1.700000*%
G04 APERTURE END LIST*
D10*
X99840777Y-115666667D02*
X99888396Y-115809524D01*
X99888396Y-115809524D02*
X99888396Y-116047619D01*
X99888396Y-116047619D02*
X99840777Y-116142857D01*
X99840777Y-116142857D02*
X99793157Y-116190476D01*
X99793157Y-116190476D02*
X99697919Y-116238095D01*
X99697919Y-116238095D02*
X99602681Y-116238095D01*
X99602681Y-116238095D02*
X99507443Y-116190476D01*
X99507443Y-116190476D02*
X99459824Y-116142857D01*
X99459824Y-116142857D02*
X99412205Y-116047619D01*
X99412205Y-116047619D02*
X99364586Y-115857143D01*
X99364586Y-115857143D02*
X99316967Y-115761905D01*
X99316967Y-115761905D02*
X99269348Y-115714286D01*
X99269348Y-115714286D02*
X99174110Y-115666667D01*
X99174110Y-115666667D02*
X99078872Y-115666667D01*
X99078872Y-115666667D02*
X98983634Y-115714286D01*
X98983634Y-115714286D02*
X98936015Y-115761905D01*
X98936015Y-115761905D02*
X98888396Y-115857143D01*
X98888396Y-115857143D02*
X98888396Y-116095238D01*
X98888396Y-116095238D02*
X98936015Y-116238095D01*
X98888396Y-116571429D02*
X99888396Y-116809524D01*
X99888396Y-116809524D02*
X99174110Y-117000000D01*
X99174110Y-117000000D02*
X99888396Y-117190476D01*
X99888396Y-117190476D02*
X98888396Y-117428572D01*
X99888396Y-118333333D02*
X99888396Y-117761905D01*
X99888396Y-118047619D02*
X98888396Y-118047619D01*
X98888396Y-118047619D02*
X99031253Y-117952381D01*
X99031253Y-117952381D02*
X99126491Y-117857143D01*
X99126491Y-117857143D02*
X99174110Y-117761905D01*
D11*
%TO.C,SW1*%
X100433577Y-115670000D02*
X101763577Y-115670000D01*
X100433577Y-117000000D02*
X100433577Y-115670000D01*
X103033577Y-118330000D02*
X103033577Y-115670000D01*
X108173577Y-115670000D02*
X103033577Y-115670000D01*
X108173577Y-118330000D02*
X103033577Y-118330000D01*
X108173577Y-118330000D02*
X108173577Y-115670000D01*
%TD*%
%LPC*%
D12*
%TO.C,BZ1*%
X119000000Y-111000000D03*
D13*
X111400000Y-111000000D03*
%TD*%
D12*
%TO.C,BT1*%
X111857455Y-121000000D03*
D13*
X91057455Y-121000000D03*
%TD*%
D14*
%TO.C,SW1*%
X101763577Y-117000000D03*
D15*
X104303577Y-117000000D03*
X106843577Y-117000000D03*
%TD*%
%LPD*%
M02*
