%TF.GenerationSoftware,KiCad,Pcbnew,8.0.8*%
%TF.CreationDate,2025-02-19T12:39:33-05:00*%
%TF.ProjectId,beeping-easter-egg,62656570-696e-4672-9d65-61737465722d,rev?*%
%TF.SameCoordinates,Original*%
%TF.FileFunction,Legend,Top*%
%TF.FilePolarity,Positive*%
%FSLAX46Y46*%
G04 Gerber Fmt 4.6, Leading zero omitted, Abs format (unit mm)*
G04 Created by KiCad (PCBNEW 8.0.8) date 2025-02-19 12:39:33*
%MOMM*%
%LPD*%
G01*
G04 APERTURE LIST*
G04 Aperture macros list*
%AMRoundRect*
0 Rectangle with rounded corners*
0 $1 Rounding radius*
0 $2 $3 $4 $5 $6 $7 $8 $9 X,Y pos of 4 corners*
0 Add a 4 corners polygon primitive as box body*
4,1,4,$2,$3,$4,$5,$6,$7,$8,$9,$2,$3,0*
0 Add four circle primitives for the rounded corners*
1,1,$1+$1,$2,$3*
1,1,$1+$1,$4,$5*
1,1,$1+$1,$6,$7*
1,1,$1+$1,$8,$9*
0 Add four rect primitives between the rounded corners*
20,1,$1+$1,$2,$3,$4,$5,0*
20,1,$1+$1,$4,$5,$6,$7,0*
20,1,$1+$1,$6,$7,$8,$9,0*
20,1,$1+$1,$8,$9,$2,$3,0*%
G04 Aperture macros list end*
%ADD10C,0.150000*%
%ADD11C,0.120000*%
%ADD12RoundRect,0.200000X-0.200000X-0.275000X0.200000X-0.275000X0.200000X0.275000X-0.200000X0.275000X0*%
%ADD13R,2.000000X2.000000*%
%ADD14C,2.000000*%
%ADD15RoundRect,0.150000X0.150000X-0.587500X0.150000X0.587500X-0.150000X0.587500X-0.150000X-0.587500X0*%
%ADD16RoundRect,0.225000X-0.225000X-0.250000X0.225000X-0.250000X0.225000X0.250000X-0.225000X0.250000X0*%
%ADD17RoundRect,0.225000X0.225000X0.250000X-0.225000X0.250000X-0.225000X-0.250000X0.225000X-0.250000X0*%
%ADD18RoundRect,0.150000X-0.825000X-0.150000X0.825000X-0.150000X0.825000X0.150000X-0.825000X0.150000X0*%
%ADD19RoundRect,0.150000X-0.150000X0.587500X-0.150000X-0.587500X0.150000X-0.587500X0.150000X0.587500X0*%
%ADD20R,1.700000X1.700000*%
%ADD21O,1.700000X1.700000*%
G04 APERTURE END LIST*
D10*
X119336779Y-122126121D02*
X119670112Y-122126121D01*
X119812969Y-122649931D02*
X119336779Y-122649931D01*
X119336779Y-122649931D02*
X119336779Y-121649931D01*
X119336779Y-121649931D02*
X119812969Y-121649931D01*
X120670112Y-122649931D02*
X120670112Y-122126121D01*
X120670112Y-122126121D02*
X120622493Y-122030883D01*
X120622493Y-122030883D02*
X120527255Y-121983264D01*
X120527255Y-121983264D02*
X120336779Y-121983264D01*
X120336779Y-121983264D02*
X120241541Y-122030883D01*
X120670112Y-122602312D02*
X120574874Y-122649931D01*
X120574874Y-122649931D02*
X120336779Y-122649931D01*
X120336779Y-122649931D02*
X120241541Y-122602312D01*
X120241541Y-122602312D02*
X120193922Y-122507073D01*
X120193922Y-122507073D02*
X120193922Y-122411835D01*
X120193922Y-122411835D02*
X120241541Y-122316597D01*
X120241541Y-122316597D02*
X120336779Y-122268978D01*
X120336779Y-122268978D02*
X120574874Y-122268978D01*
X120574874Y-122268978D02*
X120670112Y-122221359D01*
X121098684Y-122602312D02*
X121193922Y-122649931D01*
X121193922Y-122649931D02*
X121384398Y-122649931D01*
X121384398Y-122649931D02*
X121479636Y-122602312D01*
X121479636Y-122602312D02*
X121527255Y-122507073D01*
X121527255Y-122507073D02*
X121527255Y-122459454D01*
X121527255Y-122459454D02*
X121479636Y-122364216D01*
X121479636Y-122364216D02*
X121384398Y-122316597D01*
X121384398Y-122316597D02*
X121241541Y-122316597D01*
X121241541Y-122316597D02*
X121146303Y-122268978D01*
X121146303Y-122268978D02*
X121098684Y-122173740D01*
X121098684Y-122173740D02*
X121098684Y-122126121D01*
X121098684Y-122126121D02*
X121146303Y-122030883D01*
X121146303Y-122030883D02*
X121241541Y-121983264D01*
X121241541Y-121983264D02*
X121384398Y-121983264D01*
X121384398Y-121983264D02*
X121479636Y-122030883D01*
X121812970Y-121983264D02*
X122193922Y-121983264D01*
X121955827Y-121649931D02*
X121955827Y-122507073D01*
X121955827Y-122507073D02*
X122003446Y-122602312D01*
X122003446Y-122602312D02*
X122098684Y-122649931D01*
X122098684Y-122649931D02*
X122193922Y-122649931D01*
X122908208Y-122602312D02*
X122812970Y-122649931D01*
X122812970Y-122649931D02*
X122622494Y-122649931D01*
X122622494Y-122649931D02*
X122527256Y-122602312D01*
X122527256Y-122602312D02*
X122479637Y-122507073D01*
X122479637Y-122507073D02*
X122479637Y-122126121D01*
X122479637Y-122126121D02*
X122527256Y-122030883D01*
X122527256Y-122030883D02*
X122622494Y-121983264D01*
X122622494Y-121983264D02*
X122812970Y-121983264D01*
X122812970Y-121983264D02*
X122908208Y-122030883D01*
X122908208Y-122030883D02*
X122955827Y-122126121D01*
X122955827Y-122126121D02*
X122955827Y-122221359D01*
X122955827Y-122221359D02*
X122479637Y-122316597D01*
X123384399Y-122649931D02*
X123384399Y-121983264D01*
X123384399Y-122173740D02*
X123432018Y-122078502D01*
X123432018Y-122078502D02*
X123479637Y-122030883D01*
X123479637Y-122030883D02*
X123574875Y-121983264D01*
X123574875Y-121983264D02*
X123670113Y-121983264D01*
X124765352Y-122126121D02*
X125098685Y-122126121D01*
X125241542Y-122649931D02*
X124765352Y-122649931D01*
X124765352Y-122649931D02*
X124765352Y-121649931D01*
X124765352Y-121649931D02*
X125241542Y-121649931D01*
X126098685Y-121983264D02*
X126098685Y-122792788D01*
X126098685Y-122792788D02*
X126051066Y-122888026D01*
X126051066Y-122888026D02*
X126003447Y-122935645D01*
X126003447Y-122935645D02*
X125908209Y-122983264D01*
X125908209Y-122983264D02*
X125765352Y-122983264D01*
X125765352Y-122983264D02*
X125670114Y-122935645D01*
X126098685Y-122602312D02*
X126003447Y-122649931D01*
X126003447Y-122649931D02*
X125812971Y-122649931D01*
X125812971Y-122649931D02*
X125717733Y-122602312D01*
X125717733Y-122602312D02*
X125670114Y-122554692D01*
X125670114Y-122554692D02*
X125622495Y-122459454D01*
X125622495Y-122459454D02*
X125622495Y-122173740D01*
X125622495Y-122173740D02*
X125670114Y-122078502D01*
X125670114Y-122078502D02*
X125717733Y-122030883D01*
X125717733Y-122030883D02*
X125812971Y-121983264D01*
X125812971Y-121983264D02*
X126003447Y-121983264D01*
X126003447Y-121983264D02*
X126098685Y-122030883D01*
X127003447Y-121983264D02*
X127003447Y-122792788D01*
X127003447Y-122792788D02*
X126955828Y-122888026D01*
X126955828Y-122888026D02*
X126908209Y-122935645D01*
X126908209Y-122935645D02*
X126812971Y-122983264D01*
X126812971Y-122983264D02*
X126670114Y-122983264D01*
X126670114Y-122983264D02*
X126574876Y-122935645D01*
X127003447Y-122602312D02*
X126908209Y-122649931D01*
X126908209Y-122649931D02*
X126717733Y-122649931D01*
X126717733Y-122649931D02*
X126622495Y-122602312D01*
X126622495Y-122602312D02*
X126574876Y-122554692D01*
X126574876Y-122554692D02*
X126527257Y-122459454D01*
X126527257Y-122459454D02*
X126527257Y-122173740D01*
X126527257Y-122173740D02*
X126574876Y-122078502D01*
X126574876Y-122078502D02*
X126622495Y-122030883D01*
X126622495Y-122030883D02*
X126717733Y-121983264D01*
X126717733Y-121983264D02*
X126908209Y-121983264D01*
X126908209Y-121983264D02*
X127003447Y-122030883D01*
X128574876Y-122126121D02*
X128717733Y-122173740D01*
X128717733Y-122173740D02*
X128765352Y-122221359D01*
X128765352Y-122221359D02*
X128812971Y-122316597D01*
X128812971Y-122316597D02*
X128812971Y-122459454D01*
X128812971Y-122459454D02*
X128765352Y-122554692D01*
X128765352Y-122554692D02*
X128717733Y-122602312D01*
X128717733Y-122602312D02*
X128622495Y-122649931D01*
X128622495Y-122649931D02*
X128241543Y-122649931D01*
X128241543Y-122649931D02*
X128241543Y-121649931D01*
X128241543Y-121649931D02*
X128574876Y-121649931D01*
X128574876Y-121649931D02*
X128670114Y-121697550D01*
X128670114Y-121697550D02*
X128717733Y-121745169D01*
X128717733Y-121745169D02*
X128765352Y-121840407D01*
X128765352Y-121840407D02*
X128765352Y-121935645D01*
X128765352Y-121935645D02*
X128717733Y-122030883D01*
X128717733Y-122030883D02*
X128670114Y-122078502D01*
X128670114Y-122078502D02*
X128574876Y-122126121D01*
X128574876Y-122126121D02*
X128241543Y-122126121D01*
X129622495Y-122602312D02*
X129527257Y-122649931D01*
X129527257Y-122649931D02*
X129336781Y-122649931D01*
X129336781Y-122649931D02*
X129241543Y-122602312D01*
X129241543Y-122602312D02*
X129193924Y-122507073D01*
X129193924Y-122507073D02*
X129193924Y-122126121D01*
X129193924Y-122126121D02*
X129241543Y-122030883D01*
X129241543Y-122030883D02*
X129336781Y-121983264D01*
X129336781Y-121983264D02*
X129527257Y-121983264D01*
X129527257Y-121983264D02*
X129622495Y-122030883D01*
X129622495Y-122030883D02*
X129670114Y-122126121D01*
X129670114Y-122126121D02*
X129670114Y-122221359D01*
X129670114Y-122221359D02*
X129193924Y-122316597D01*
X130479638Y-122602312D02*
X130384400Y-122649931D01*
X130384400Y-122649931D02*
X130193924Y-122649931D01*
X130193924Y-122649931D02*
X130098686Y-122602312D01*
X130098686Y-122602312D02*
X130051067Y-122507073D01*
X130051067Y-122507073D02*
X130051067Y-122126121D01*
X130051067Y-122126121D02*
X130098686Y-122030883D01*
X130098686Y-122030883D02*
X130193924Y-121983264D01*
X130193924Y-121983264D02*
X130384400Y-121983264D01*
X130384400Y-121983264D02*
X130479638Y-122030883D01*
X130479638Y-122030883D02*
X130527257Y-122126121D01*
X130527257Y-122126121D02*
X130527257Y-122221359D01*
X130527257Y-122221359D02*
X130051067Y-122316597D01*
X130955829Y-121983264D02*
X130955829Y-122983264D01*
X130955829Y-122030883D02*
X131051067Y-121983264D01*
X131051067Y-121983264D02*
X131241543Y-121983264D01*
X131241543Y-121983264D02*
X131336781Y-122030883D01*
X131336781Y-122030883D02*
X131384400Y-122078502D01*
X131384400Y-122078502D02*
X131432019Y-122173740D01*
X131432019Y-122173740D02*
X131432019Y-122459454D01*
X131432019Y-122459454D02*
X131384400Y-122554692D01*
X131384400Y-122554692D02*
X131336781Y-122602312D01*
X131336781Y-122602312D02*
X131241543Y-122649931D01*
X131241543Y-122649931D02*
X131051067Y-122649931D01*
X131051067Y-122649931D02*
X130955829Y-122602312D01*
X132241543Y-122602312D02*
X132146305Y-122649931D01*
X132146305Y-122649931D02*
X131955829Y-122649931D01*
X131955829Y-122649931D02*
X131860591Y-122602312D01*
X131860591Y-122602312D02*
X131812972Y-122507073D01*
X131812972Y-122507073D02*
X131812972Y-122126121D01*
X131812972Y-122126121D02*
X131860591Y-122030883D01*
X131860591Y-122030883D02*
X131955829Y-121983264D01*
X131955829Y-121983264D02*
X132146305Y-121983264D01*
X132146305Y-121983264D02*
X132241543Y-122030883D01*
X132241543Y-122030883D02*
X132289162Y-122126121D01*
X132289162Y-122126121D02*
X132289162Y-122221359D01*
X132289162Y-122221359D02*
X131812972Y-122316597D01*
X132717734Y-122649931D02*
X132717734Y-121983264D01*
X132717734Y-122173740D02*
X132765353Y-122078502D01*
X132765353Y-122078502D02*
X132812972Y-122030883D01*
X132812972Y-122030883D02*
X132908210Y-121983264D01*
X132908210Y-121983264D02*
X133003448Y-121983264D01*
X119193922Y-123259875D02*
X119527255Y-124259875D01*
X119527255Y-124259875D02*
X119860588Y-123259875D01*
X120384398Y-123259875D02*
X120479636Y-123259875D01*
X120479636Y-123259875D02*
X120574874Y-123307494D01*
X120574874Y-123307494D02*
X120622493Y-123355113D01*
X120622493Y-123355113D02*
X120670112Y-123450351D01*
X120670112Y-123450351D02*
X120717731Y-123640827D01*
X120717731Y-123640827D02*
X120717731Y-123878922D01*
X120717731Y-123878922D02*
X120670112Y-124069398D01*
X120670112Y-124069398D02*
X120622493Y-124164636D01*
X120622493Y-124164636D02*
X120574874Y-124212256D01*
X120574874Y-124212256D02*
X120479636Y-124259875D01*
X120479636Y-124259875D02*
X120384398Y-124259875D01*
X120384398Y-124259875D02*
X120289160Y-124212256D01*
X120289160Y-124212256D02*
X120241541Y-124164636D01*
X120241541Y-124164636D02*
X120193922Y-124069398D01*
X120193922Y-124069398D02*
X120146303Y-123878922D01*
X120146303Y-123878922D02*
X120146303Y-123640827D01*
X120146303Y-123640827D02*
X120193922Y-123450351D01*
X120193922Y-123450351D02*
X120241541Y-123355113D01*
X120241541Y-123355113D02*
X120289160Y-123307494D01*
X120289160Y-123307494D02*
X120384398Y-123259875D01*
X121146303Y-124164636D02*
X121193922Y-124212256D01*
X121193922Y-124212256D02*
X121146303Y-124259875D01*
X121146303Y-124259875D02*
X121098684Y-124212256D01*
X121098684Y-124212256D02*
X121146303Y-124164636D01*
X121146303Y-124164636D02*
X121146303Y-124259875D01*
X122146302Y-124259875D02*
X121574874Y-124259875D01*
X121860588Y-124259875D02*
X121860588Y-123259875D01*
X121860588Y-123259875D02*
X121765350Y-123402732D01*
X121765350Y-123402732D02*
X121670112Y-123497970D01*
X121670112Y-123497970D02*
X121574874Y-123545589D01*
X119193922Y-124869819D02*
X119765350Y-124869819D01*
X119479636Y-125869819D02*
X119479636Y-124869819D01*
X120241541Y-125869819D02*
X120146303Y-125822200D01*
X120146303Y-125822200D02*
X120098684Y-125774580D01*
X120098684Y-125774580D02*
X120051065Y-125679342D01*
X120051065Y-125679342D02*
X120051065Y-125393628D01*
X120051065Y-125393628D02*
X120098684Y-125298390D01*
X120098684Y-125298390D02*
X120146303Y-125250771D01*
X120146303Y-125250771D02*
X120241541Y-125203152D01*
X120241541Y-125203152D02*
X120384398Y-125203152D01*
X120384398Y-125203152D02*
X120479636Y-125250771D01*
X120479636Y-125250771D02*
X120527255Y-125298390D01*
X120527255Y-125298390D02*
X120574874Y-125393628D01*
X120574874Y-125393628D02*
X120574874Y-125679342D01*
X120574874Y-125679342D02*
X120527255Y-125774580D01*
X120527255Y-125774580D02*
X120479636Y-125822200D01*
X120479636Y-125822200D02*
X120384398Y-125869819D01*
X120384398Y-125869819D02*
X120241541Y-125869819D01*
X121003446Y-125869819D02*
X121003446Y-125203152D01*
X121003446Y-125298390D02*
X121051065Y-125250771D01*
X121051065Y-125250771D02*
X121146303Y-125203152D01*
X121146303Y-125203152D02*
X121289160Y-125203152D01*
X121289160Y-125203152D02*
X121384398Y-125250771D01*
X121384398Y-125250771D02*
X121432017Y-125346009D01*
X121432017Y-125346009D02*
X121432017Y-125869819D01*
X121432017Y-125346009D02*
X121479636Y-125250771D01*
X121479636Y-125250771D02*
X121574874Y-125203152D01*
X121574874Y-125203152D02*
X121717731Y-125203152D01*
X121717731Y-125203152D02*
X121812970Y-125250771D01*
X121812970Y-125250771D02*
X121860589Y-125346009D01*
X121860589Y-125346009D02*
X121860589Y-125869819D01*
X122765350Y-125869819D02*
X122765350Y-125346009D01*
X122765350Y-125346009D02*
X122717731Y-125250771D01*
X122717731Y-125250771D02*
X122622493Y-125203152D01*
X122622493Y-125203152D02*
X122432017Y-125203152D01*
X122432017Y-125203152D02*
X122336779Y-125250771D01*
X122765350Y-125822200D02*
X122670112Y-125869819D01*
X122670112Y-125869819D02*
X122432017Y-125869819D01*
X122432017Y-125869819D02*
X122336779Y-125822200D01*
X122336779Y-125822200D02*
X122289160Y-125726961D01*
X122289160Y-125726961D02*
X122289160Y-125631723D01*
X122289160Y-125631723D02*
X122336779Y-125536485D01*
X122336779Y-125536485D02*
X122432017Y-125488866D01*
X122432017Y-125488866D02*
X122670112Y-125488866D01*
X122670112Y-125488866D02*
X122765350Y-125441247D01*
X123241541Y-125203152D02*
X123241541Y-125869819D01*
X123241541Y-125298390D02*
X123289160Y-125250771D01*
X123289160Y-125250771D02*
X123384398Y-125203152D01*
X123384398Y-125203152D02*
X123527255Y-125203152D01*
X123527255Y-125203152D02*
X123622493Y-125250771D01*
X123622493Y-125250771D02*
X123670112Y-125346009D01*
X123670112Y-125346009D02*
X123670112Y-125869819D01*
X124146303Y-125869819D02*
X124146303Y-125203152D01*
X124146303Y-124869819D02*
X124098684Y-124917438D01*
X124098684Y-124917438D02*
X124146303Y-124965057D01*
X124146303Y-124965057D02*
X124193922Y-124917438D01*
X124193922Y-124917438D02*
X124146303Y-124869819D01*
X124146303Y-124869819D02*
X124146303Y-124965057D01*
X124765350Y-125869819D02*
X124670112Y-125822200D01*
X124670112Y-125822200D02*
X124622493Y-125774580D01*
X124622493Y-125774580D02*
X124574874Y-125679342D01*
X124574874Y-125679342D02*
X124574874Y-125393628D01*
X124574874Y-125393628D02*
X124622493Y-125298390D01*
X124622493Y-125298390D02*
X124670112Y-125250771D01*
X124670112Y-125250771D02*
X124765350Y-125203152D01*
X124765350Y-125203152D02*
X124908207Y-125203152D01*
X124908207Y-125203152D02*
X125003445Y-125250771D01*
X125003445Y-125250771D02*
X125051064Y-125298390D01*
X125051064Y-125298390D02*
X125098683Y-125393628D01*
X125098683Y-125393628D02*
X125098683Y-125679342D01*
X125098683Y-125679342D02*
X125051064Y-125774580D01*
X125051064Y-125774580D02*
X125003445Y-125822200D01*
X125003445Y-125822200D02*
X124908207Y-125869819D01*
X124908207Y-125869819D02*
X124765350Y-125869819D01*
X126241541Y-124965057D02*
X126289160Y-124917438D01*
X126289160Y-124917438D02*
X126384398Y-124869819D01*
X126384398Y-124869819D02*
X126622493Y-124869819D01*
X126622493Y-124869819D02*
X126717731Y-124917438D01*
X126717731Y-124917438D02*
X126765350Y-124965057D01*
X126765350Y-124965057D02*
X126812969Y-125060295D01*
X126812969Y-125060295D02*
X126812969Y-125155533D01*
X126812969Y-125155533D02*
X126765350Y-125298390D01*
X126765350Y-125298390D02*
X126193922Y-125869819D01*
X126193922Y-125869819D02*
X126812969Y-125869819D01*
X127432017Y-124869819D02*
X127527255Y-124869819D01*
X127527255Y-124869819D02*
X127622493Y-124917438D01*
X127622493Y-124917438D02*
X127670112Y-124965057D01*
X127670112Y-124965057D02*
X127717731Y-125060295D01*
X127717731Y-125060295D02*
X127765350Y-125250771D01*
X127765350Y-125250771D02*
X127765350Y-125488866D01*
X127765350Y-125488866D02*
X127717731Y-125679342D01*
X127717731Y-125679342D02*
X127670112Y-125774580D01*
X127670112Y-125774580D02*
X127622493Y-125822200D01*
X127622493Y-125822200D02*
X127527255Y-125869819D01*
X127527255Y-125869819D02*
X127432017Y-125869819D01*
X127432017Y-125869819D02*
X127336779Y-125822200D01*
X127336779Y-125822200D02*
X127289160Y-125774580D01*
X127289160Y-125774580D02*
X127241541Y-125679342D01*
X127241541Y-125679342D02*
X127193922Y-125488866D01*
X127193922Y-125488866D02*
X127193922Y-125250771D01*
X127193922Y-125250771D02*
X127241541Y-125060295D01*
X127241541Y-125060295D02*
X127289160Y-124965057D01*
X127289160Y-124965057D02*
X127336779Y-124917438D01*
X127336779Y-124917438D02*
X127432017Y-124869819D01*
X128146303Y-124965057D02*
X128193922Y-124917438D01*
X128193922Y-124917438D02*
X128289160Y-124869819D01*
X128289160Y-124869819D02*
X128527255Y-124869819D01*
X128527255Y-124869819D02*
X128622493Y-124917438D01*
X128622493Y-124917438D02*
X128670112Y-124965057D01*
X128670112Y-124965057D02*
X128717731Y-125060295D01*
X128717731Y-125060295D02*
X128717731Y-125155533D01*
X128717731Y-125155533D02*
X128670112Y-125298390D01*
X128670112Y-125298390D02*
X128098684Y-125869819D01*
X128098684Y-125869819D02*
X128717731Y-125869819D01*
X129622493Y-124869819D02*
X129146303Y-124869819D01*
X129146303Y-124869819D02*
X129098684Y-125346009D01*
X129098684Y-125346009D02*
X129146303Y-125298390D01*
X129146303Y-125298390D02*
X129241541Y-125250771D01*
X129241541Y-125250771D02*
X129479636Y-125250771D01*
X129479636Y-125250771D02*
X129574874Y-125298390D01*
X129574874Y-125298390D02*
X129622493Y-125346009D01*
X129622493Y-125346009D02*
X129670112Y-125441247D01*
X129670112Y-125441247D02*
X129670112Y-125679342D01*
X129670112Y-125679342D02*
X129622493Y-125774580D01*
X129622493Y-125774580D02*
X129574874Y-125822200D01*
X129574874Y-125822200D02*
X129479636Y-125869819D01*
X129479636Y-125869819D02*
X129241541Y-125869819D01*
X129241541Y-125869819D02*
X129146303Y-125822200D01*
X129146303Y-125822200D02*
X129098684Y-125774580D01*
X94174999Y-100524819D02*
X93841666Y-100048628D01*
X93603571Y-100524819D02*
X93603571Y-99524819D01*
X93603571Y-99524819D02*
X93984523Y-99524819D01*
X93984523Y-99524819D02*
X94079761Y-99572438D01*
X94079761Y-99572438D02*
X94127380Y-99620057D01*
X94127380Y-99620057D02*
X94174999Y-99715295D01*
X94174999Y-99715295D02*
X94174999Y-99858152D01*
X94174999Y-99858152D02*
X94127380Y-99953390D01*
X94127380Y-99953390D02*
X94079761Y-100001009D01*
X94079761Y-100001009D02*
X93984523Y-100048628D01*
X93984523Y-100048628D02*
X93603571Y-100048628D01*
X94603571Y-99858152D02*
X94603571Y-100858152D01*
X94603571Y-99905771D02*
X94698809Y-99858152D01*
X94698809Y-99858152D02*
X94889285Y-99858152D01*
X94889285Y-99858152D02*
X94984523Y-99905771D01*
X94984523Y-99905771D02*
X95032142Y-99953390D01*
X95032142Y-99953390D02*
X95079761Y-100048628D01*
X95079761Y-100048628D02*
X95079761Y-100334342D01*
X95079761Y-100334342D02*
X95032142Y-100429580D01*
X95032142Y-100429580D02*
X94984523Y-100477200D01*
X94984523Y-100477200D02*
X94889285Y-100524819D01*
X94889285Y-100524819D02*
X94698809Y-100524819D01*
X94698809Y-100524819D02*
X94603571Y-100477200D01*
X95936904Y-99858152D02*
X95936904Y-100524819D01*
X95508333Y-99858152D02*
X95508333Y-100381961D01*
X95508333Y-100381961D02*
X95555952Y-100477200D01*
X95555952Y-100477200D02*
X95651190Y-100524819D01*
X95651190Y-100524819D02*
X95794047Y-100524819D01*
X95794047Y-100524819D02*
X95889285Y-100477200D01*
X95889285Y-100477200D02*
X95936904Y-100429580D01*
X96555952Y-100524819D02*
X96460714Y-100477200D01*
X96460714Y-100477200D02*
X96413095Y-100381961D01*
X96413095Y-100381961D02*
X96413095Y-99524819D01*
X97079762Y-100524819D02*
X96984524Y-100477200D01*
X96984524Y-100477200D02*
X96936905Y-100381961D01*
X96936905Y-100381961D02*
X96936905Y-99524819D01*
X97889286Y-99858152D02*
X97889286Y-100524819D01*
X97460715Y-99858152D02*
X97460715Y-100381961D01*
X97460715Y-100381961D02*
X97508334Y-100477200D01*
X97508334Y-100477200D02*
X97603572Y-100524819D01*
X97603572Y-100524819D02*
X97746429Y-100524819D01*
X97746429Y-100524819D02*
X97841667Y-100477200D01*
X97841667Y-100477200D02*
X97889286Y-100429580D01*
X98365477Y-99858152D02*
X98365477Y-100858152D01*
X98365477Y-99905771D02*
X98460715Y-99858152D01*
X98460715Y-99858152D02*
X98651191Y-99858152D01*
X98651191Y-99858152D02*
X98746429Y-99905771D01*
X98746429Y-99905771D02*
X98794048Y-99953390D01*
X98794048Y-99953390D02*
X98841667Y-100048628D01*
X98841667Y-100048628D02*
X98841667Y-100334342D01*
X98841667Y-100334342D02*
X98794048Y-100429580D01*
X98794048Y-100429580D02*
X98746429Y-100477200D01*
X98746429Y-100477200D02*
X98651191Y-100524819D01*
X98651191Y-100524819D02*
X98460715Y-100524819D01*
X98460715Y-100524819D02*
X98365477Y-100477200D01*
X99794048Y-100524819D02*
X99222620Y-100524819D01*
X99508334Y-100524819D02*
X99508334Y-99524819D01*
X99508334Y-99524819D02*
X99413096Y-99667676D01*
X99413096Y-99667676D02*
X99317858Y-99762914D01*
X99317858Y-99762914D02*
X99222620Y-99810533D01*
X103369047Y-98861009D02*
X103511904Y-98908628D01*
X103511904Y-98908628D02*
X103559523Y-98956247D01*
X103559523Y-98956247D02*
X103607142Y-99051485D01*
X103607142Y-99051485D02*
X103607142Y-99194342D01*
X103607142Y-99194342D02*
X103559523Y-99289580D01*
X103559523Y-99289580D02*
X103511904Y-99337200D01*
X103511904Y-99337200D02*
X103416666Y-99384819D01*
X103416666Y-99384819D02*
X103035714Y-99384819D01*
X103035714Y-99384819D02*
X103035714Y-98384819D01*
X103035714Y-98384819D02*
X103369047Y-98384819D01*
X103369047Y-98384819D02*
X103464285Y-98432438D01*
X103464285Y-98432438D02*
X103511904Y-98480057D01*
X103511904Y-98480057D02*
X103559523Y-98575295D01*
X103559523Y-98575295D02*
X103559523Y-98670533D01*
X103559523Y-98670533D02*
X103511904Y-98765771D01*
X103511904Y-98765771D02*
X103464285Y-98813390D01*
X103464285Y-98813390D02*
X103369047Y-98861009D01*
X103369047Y-98861009D02*
X103035714Y-98861009D01*
X103940476Y-98384819D02*
X104607142Y-98384819D01*
X104607142Y-98384819D02*
X103940476Y-99384819D01*
X103940476Y-99384819D02*
X104607142Y-99384819D01*
X105511904Y-99384819D02*
X104940476Y-99384819D01*
X105226190Y-99384819D02*
X105226190Y-98384819D01*
X105226190Y-98384819D02*
X105130952Y-98527676D01*
X105130952Y-98527676D02*
X105035714Y-98622914D01*
X105035714Y-98622914D02*
X104940476Y-98670533D01*
X107679048Y-94343866D02*
X108440953Y-94343866D01*
X108060000Y-94724819D02*
X108060000Y-93962914D01*
X108008333Y-104524819D02*
X107675000Y-104048628D01*
X107436905Y-104524819D02*
X107436905Y-103524819D01*
X107436905Y-103524819D02*
X107817857Y-103524819D01*
X107817857Y-103524819D02*
X107913095Y-103572438D01*
X107913095Y-103572438D02*
X107960714Y-103620057D01*
X107960714Y-103620057D02*
X108008333Y-103715295D01*
X108008333Y-103715295D02*
X108008333Y-103858152D01*
X108008333Y-103858152D02*
X107960714Y-103953390D01*
X107960714Y-103953390D02*
X107913095Y-104001009D01*
X107913095Y-104001009D02*
X107817857Y-104048628D01*
X107817857Y-104048628D02*
X107436905Y-104048628D01*
X108389286Y-103620057D02*
X108436905Y-103572438D01*
X108436905Y-103572438D02*
X108532143Y-103524819D01*
X108532143Y-103524819D02*
X108770238Y-103524819D01*
X108770238Y-103524819D02*
X108865476Y-103572438D01*
X108865476Y-103572438D02*
X108913095Y-103620057D01*
X108913095Y-103620057D02*
X108960714Y-103715295D01*
X108960714Y-103715295D02*
X108960714Y-103810533D01*
X108960714Y-103810533D02*
X108913095Y-103953390D01*
X108913095Y-103953390D02*
X108341667Y-104524819D01*
X108341667Y-104524819D02*
X108960714Y-104524819D01*
X98700057Y-100657738D02*
X98652438Y-100752976D01*
X98652438Y-100752976D02*
X98557200Y-100848214D01*
X98557200Y-100848214D02*
X98414342Y-100991071D01*
X98414342Y-100991071D02*
X98366723Y-101086309D01*
X98366723Y-101086309D02*
X98366723Y-101181547D01*
X98604819Y-101133928D02*
X98557200Y-101229166D01*
X98557200Y-101229166D02*
X98461961Y-101324404D01*
X98461961Y-101324404D02*
X98271485Y-101372023D01*
X98271485Y-101372023D02*
X97938152Y-101372023D01*
X97938152Y-101372023D02*
X97747676Y-101324404D01*
X97747676Y-101324404D02*
X97652438Y-101229166D01*
X97652438Y-101229166D02*
X97604819Y-101133928D01*
X97604819Y-101133928D02*
X97604819Y-100943452D01*
X97604819Y-100943452D02*
X97652438Y-100848214D01*
X97652438Y-100848214D02*
X97747676Y-100752976D01*
X97747676Y-100752976D02*
X97938152Y-100705357D01*
X97938152Y-100705357D02*
X98271485Y-100705357D01*
X98271485Y-100705357D02*
X98461961Y-100752976D01*
X98461961Y-100752976D02*
X98557200Y-100848214D01*
X98557200Y-100848214D02*
X98604819Y-100943452D01*
X98604819Y-100943452D02*
X98604819Y-101133928D01*
X97700057Y-100324404D02*
X97652438Y-100276785D01*
X97652438Y-100276785D02*
X97604819Y-100181547D01*
X97604819Y-100181547D02*
X97604819Y-99943452D01*
X97604819Y-99943452D02*
X97652438Y-99848214D01*
X97652438Y-99848214D02*
X97700057Y-99800595D01*
X97700057Y-99800595D02*
X97795295Y-99752976D01*
X97795295Y-99752976D02*
X97890533Y-99752976D01*
X97890533Y-99752976D02*
X98033390Y-99800595D01*
X98033390Y-99800595D02*
X98604819Y-100372023D01*
X98604819Y-100372023D02*
X98604819Y-99752976D01*
X108108333Y-106429580D02*
X108060714Y-106477200D01*
X108060714Y-106477200D02*
X107917857Y-106524819D01*
X107917857Y-106524819D02*
X107822619Y-106524819D01*
X107822619Y-106524819D02*
X107679762Y-106477200D01*
X107679762Y-106477200D02*
X107584524Y-106381961D01*
X107584524Y-106381961D02*
X107536905Y-106286723D01*
X107536905Y-106286723D02*
X107489286Y-106096247D01*
X107489286Y-106096247D02*
X107489286Y-105953390D01*
X107489286Y-105953390D02*
X107536905Y-105762914D01*
X107536905Y-105762914D02*
X107584524Y-105667676D01*
X107584524Y-105667676D02*
X107679762Y-105572438D01*
X107679762Y-105572438D02*
X107822619Y-105524819D01*
X107822619Y-105524819D02*
X107917857Y-105524819D01*
X107917857Y-105524819D02*
X108060714Y-105572438D01*
X108060714Y-105572438D02*
X108108333Y-105620057D01*
X108489286Y-105620057D02*
X108536905Y-105572438D01*
X108536905Y-105572438D02*
X108632143Y-105524819D01*
X108632143Y-105524819D02*
X108870238Y-105524819D01*
X108870238Y-105524819D02*
X108965476Y-105572438D01*
X108965476Y-105572438D02*
X109013095Y-105620057D01*
X109013095Y-105620057D02*
X109060714Y-105715295D01*
X109060714Y-105715295D02*
X109060714Y-105810533D01*
X109060714Y-105810533D02*
X109013095Y-105953390D01*
X109013095Y-105953390D02*
X108441667Y-106524819D01*
X108441667Y-106524819D02*
X109060714Y-106524819D01*
X107555952Y-100524819D02*
X107222619Y-100048628D01*
X106984524Y-100524819D02*
X106984524Y-99524819D01*
X106984524Y-99524819D02*
X107365476Y-99524819D01*
X107365476Y-99524819D02*
X107460714Y-99572438D01*
X107460714Y-99572438D02*
X107508333Y-99620057D01*
X107508333Y-99620057D02*
X107555952Y-99715295D01*
X107555952Y-99715295D02*
X107555952Y-99858152D01*
X107555952Y-99858152D02*
X107508333Y-99953390D01*
X107508333Y-99953390D02*
X107460714Y-100001009D01*
X107460714Y-100001009D02*
X107365476Y-100048628D01*
X107365476Y-100048628D02*
X106984524Y-100048628D01*
X108413095Y-99858152D02*
X108413095Y-100667676D01*
X108413095Y-100667676D02*
X108365476Y-100762914D01*
X108365476Y-100762914D02*
X108317857Y-100810533D01*
X108317857Y-100810533D02*
X108222619Y-100858152D01*
X108222619Y-100858152D02*
X108079762Y-100858152D01*
X108079762Y-100858152D02*
X107984524Y-100810533D01*
X108413095Y-100477200D02*
X108317857Y-100524819D01*
X108317857Y-100524819D02*
X108127381Y-100524819D01*
X108127381Y-100524819D02*
X108032143Y-100477200D01*
X108032143Y-100477200D02*
X107984524Y-100429580D01*
X107984524Y-100429580D02*
X107936905Y-100334342D01*
X107936905Y-100334342D02*
X107936905Y-100048628D01*
X107936905Y-100048628D02*
X107984524Y-99953390D01*
X107984524Y-99953390D02*
X108032143Y-99905771D01*
X108032143Y-99905771D02*
X108127381Y-99858152D01*
X108127381Y-99858152D02*
X108317857Y-99858152D01*
X108317857Y-99858152D02*
X108413095Y-99905771D01*
X109413095Y-100524819D02*
X108841667Y-100524819D01*
X109127381Y-100524819D02*
X109127381Y-99524819D01*
X109127381Y-99524819D02*
X109032143Y-99667676D01*
X109032143Y-99667676D02*
X108936905Y-99762914D01*
X108936905Y-99762914D02*
X108841667Y-99810533D01*
X96558333Y-109289580D02*
X96510714Y-109337200D01*
X96510714Y-109337200D02*
X96367857Y-109384819D01*
X96367857Y-109384819D02*
X96272619Y-109384819D01*
X96272619Y-109384819D02*
X96129762Y-109337200D01*
X96129762Y-109337200D02*
X96034524Y-109241961D01*
X96034524Y-109241961D02*
X95986905Y-109146723D01*
X95986905Y-109146723D02*
X95939286Y-108956247D01*
X95939286Y-108956247D02*
X95939286Y-108813390D01*
X95939286Y-108813390D02*
X95986905Y-108622914D01*
X95986905Y-108622914D02*
X96034524Y-108527676D01*
X96034524Y-108527676D02*
X96129762Y-108432438D01*
X96129762Y-108432438D02*
X96272619Y-108384819D01*
X96272619Y-108384819D02*
X96367857Y-108384819D01*
X96367857Y-108384819D02*
X96510714Y-108432438D01*
X96510714Y-108432438D02*
X96558333Y-108480057D01*
X96891667Y-108384819D02*
X97510714Y-108384819D01*
X97510714Y-108384819D02*
X97177381Y-108765771D01*
X97177381Y-108765771D02*
X97320238Y-108765771D01*
X97320238Y-108765771D02*
X97415476Y-108813390D01*
X97415476Y-108813390D02*
X97463095Y-108861009D01*
X97463095Y-108861009D02*
X97510714Y-108956247D01*
X97510714Y-108956247D02*
X97510714Y-109194342D01*
X97510714Y-109194342D02*
X97463095Y-109289580D01*
X97463095Y-109289580D02*
X97415476Y-109337200D01*
X97415476Y-109337200D02*
X97320238Y-109384819D01*
X97320238Y-109384819D02*
X97034524Y-109384819D01*
X97034524Y-109384819D02*
X96939286Y-109337200D01*
X96939286Y-109337200D02*
X96891667Y-109289580D01*
X96558333Y-105289580D02*
X96510714Y-105337200D01*
X96510714Y-105337200D02*
X96367857Y-105384819D01*
X96367857Y-105384819D02*
X96272619Y-105384819D01*
X96272619Y-105384819D02*
X96129762Y-105337200D01*
X96129762Y-105337200D02*
X96034524Y-105241961D01*
X96034524Y-105241961D02*
X95986905Y-105146723D01*
X95986905Y-105146723D02*
X95939286Y-104956247D01*
X95939286Y-104956247D02*
X95939286Y-104813390D01*
X95939286Y-104813390D02*
X95986905Y-104622914D01*
X95986905Y-104622914D02*
X96034524Y-104527676D01*
X96034524Y-104527676D02*
X96129762Y-104432438D01*
X96129762Y-104432438D02*
X96272619Y-104384819D01*
X96272619Y-104384819D02*
X96367857Y-104384819D01*
X96367857Y-104384819D02*
X96510714Y-104432438D01*
X96510714Y-104432438D02*
X96558333Y-104480057D01*
X97510714Y-105384819D02*
X96939286Y-105384819D01*
X97225000Y-105384819D02*
X97225000Y-104384819D01*
X97225000Y-104384819D02*
X97129762Y-104527676D01*
X97129762Y-104527676D02*
X97034524Y-104622914D01*
X97034524Y-104622914D02*
X96939286Y-104670533D01*
X101763095Y-101649819D02*
X101763095Y-102459342D01*
X101763095Y-102459342D02*
X101810714Y-102554580D01*
X101810714Y-102554580D02*
X101858333Y-102602200D01*
X101858333Y-102602200D02*
X101953571Y-102649819D01*
X101953571Y-102649819D02*
X102144047Y-102649819D01*
X102144047Y-102649819D02*
X102239285Y-102602200D01*
X102239285Y-102602200D02*
X102286904Y-102554580D01*
X102286904Y-102554580D02*
X102334523Y-102459342D01*
X102334523Y-102459342D02*
X102334523Y-101649819D01*
X103334523Y-102649819D02*
X102763095Y-102649819D01*
X103048809Y-102649819D02*
X103048809Y-101649819D01*
X103048809Y-101649819D02*
X102953571Y-101792676D01*
X102953571Y-101792676D02*
X102858333Y-101887914D01*
X102858333Y-101887914D02*
X102763095Y-101935533D01*
X114143169Y-125268990D02*
X114000312Y-125221371D01*
X114000312Y-125221371D02*
X113952693Y-125173752D01*
X113952693Y-125173752D02*
X113905074Y-125078514D01*
X113905074Y-125078514D02*
X113905074Y-124935657D01*
X113905074Y-124935657D02*
X113952693Y-124840419D01*
X113952693Y-124840419D02*
X114000312Y-124792800D01*
X114000312Y-124792800D02*
X114095550Y-124745180D01*
X114095550Y-124745180D02*
X114476502Y-124745180D01*
X114476502Y-124745180D02*
X114476502Y-125745180D01*
X114476502Y-125745180D02*
X114143169Y-125745180D01*
X114143169Y-125745180D02*
X114047931Y-125697561D01*
X114047931Y-125697561D02*
X114000312Y-125649942D01*
X114000312Y-125649942D02*
X113952693Y-125554704D01*
X113952693Y-125554704D02*
X113952693Y-125459466D01*
X113952693Y-125459466D02*
X114000312Y-125364228D01*
X114000312Y-125364228D02*
X114047931Y-125316609D01*
X114047931Y-125316609D02*
X114143169Y-125268990D01*
X114143169Y-125268990D02*
X114476502Y-125268990D01*
X113619359Y-125745180D02*
X113047931Y-125745180D01*
X113333645Y-124745180D02*
X113333645Y-125745180D01*
X112190788Y-124745180D02*
X112762216Y-124745180D01*
X112476502Y-124745180D02*
X112476502Y-125745180D01*
X112476502Y-125745180D02*
X112571740Y-125602323D01*
X112571740Y-125602323D02*
X112666978Y-125507085D01*
X112666978Y-125507085D02*
X112762216Y-125459466D01*
X108008333Y-102524819D02*
X107675000Y-102048628D01*
X107436905Y-102524819D02*
X107436905Y-101524819D01*
X107436905Y-101524819D02*
X107817857Y-101524819D01*
X107817857Y-101524819D02*
X107913095Y-101572438D01*
X107913095Y-101572438D02*
X107960714Y-101620057D01*
X107960714Y-101620057D02*
X108008333Y-101715295D01*
X108008333Y-101715295D02*
X108008333Y-101858152D01*
X108008333Y-101858152D02*
X107960714Y-101953390D01*
X107960714Y-101953390D02*
X107913095Y-102001009D01*
X107913095Y-102001009D02*
X107817857Y-102048628D01*
X107817857Y-102048628D02*
X107436905Y-102048628D01*
X108960714Y-102524819D02*
X108389286Y-102524819D01*
X108675000Y-102524819D02*
X108675000Y-101524819D01*
X108675000Y-101524819D02*
X108579762Y-101667676D01*
X108579762Y-101667676D02*
X108484524Y-101762914D01*
X108484524Y-101762914D02*
X108389286Y-101810533D01*
X96205952Y-104524819D02*
X95872619Y-104048628D01*
X95634524Y-104524819D02*
X95634524Y-103524819D01*
X95634524Y-103524819D02*
X96015476Y-103524819D01*
X96015476Y-103524819D02*
X96110714Y-103572438D01*
X96110714Y-103572438D02*
X96158333Y-103620057D01*
X96158333Y-103620057D02*
X96205952Y-103715295D01*
X96205952Y-103715295D02*
X96205952Y-103858152D01*
X96205952Y-103858152D02*
X96158333Y-103953390D01*
X96158333Y-103953390D02*
X96110714Y-104001009D01*
X96110714Y-104001009D02*
X96015476Y-104048628D01*
X96015476Y-104048628D02*
X95634524Y-104048628D01*
X97063095Y-103858152D02*
X97063095Y-104667676D01*
X97063095Y-104667676D02*
X97015476Y-104762914D01*
X97015476Y-104762914D02*
X96967857Y-104810533D01*
X96967857Y-104810533D02*
X96872619Y-104858152D01*
X96872619Y-104858152D02*
X96729762Y-104858152D01*
X96729762Y-104858152D02*
X96634524Y-104810533D01*
X97063095Y-104477200D02*
X96967857Y-104524819D01*
X96967857Y-104524819D02*
X96777381Y-104524819D01*
X96777381Y-104524819D02*
X96682143Y-104477200D01*
X96682143Y-104477200D02*
X96634524Y-104429580D01*
X96634524Y-104429580D02*
X96586905Y-104334342D01*
X96586905Y-104334342D02*
X96586905Y-104048628D01*
X96586905Y-104048628D02*
X96634524Y-103953390D01*
X96634524Y-103953390D02*
X96682143Y-103905771D01*
X96682143Y-103905771D02*
X96777381Y-103858152D01*
X96777381Y-103858152D02*
X96967857Y-103858152D01*
X96967857Y-103858152D02*
X97063095Y-103905771D01*
X97491667Y-103620057D02*
X97539286Y-103572438D01*
X97539286Y-103572438D02*
X97634524Y-103524819D01*
X97634524Y-103524819D02*
X97872619Y-103524819D01*
X97872619Y-103524819D02*
X97967857Y-103572438D01*
X97967857Y-103572438D02*
X98015476Y-103620057D01*
X98015476Y-103620057D02*
X98063095Y-103715295D01*
X98063095Y-103715295D02*
X98063095Y-103810533D01*
X98063095Y-103810533D02*
X98015476Y-103953390D01*
X98015476Y-103953390D02*
X97444048Y-104524819D01*
X97444048Y-104524819D02*
X98063095Y-104524819D01*
X107450057Y-100657738D02*
X107402438Y-100752976D01*
X107402438Y-100752976D02*
X107307200Y-100848214D01*
X107307200Y-100848214D02*
X107164342Y-100991071D01*
X107164342Y-100991071D02*
X107116723Y-101086309D01*
X107116723Y-101086309D02*
X107116723Y-101181547D01*
X107354819Y-101133928D02*
X107307200Y-101229166D01*
X107307200Y-101229166D02*
X107211961Y-101324404D01*
X107211961Y-101324404D02*
X107021485Y-101372023D01*
X107021485Y-101372023D02*
X106688152Y-101372023D01*
X106688152Y-101372023D02*
X106497676Y-101324404D01*
X106497676Y-101324404D02*
X106402438Y-101229166D01*
X106402438Y-101229166D02*
X106354819Y-101133928D01*
X106354819Y-101133928D02*
X106354819Y-100943452D01*
X106354819Y-100943452D02*
X106402438Y-100848214D01*
X106402438Y-100848214D02*
X106497676Y-100752976D01*
X106497676Y-100752976D02*
X106688152Y-100705357D01*
X106688152Y-100705357D02*
X107021485Y-100705357D01*
X107021485Y-100705357D02*
X107211961Y-100752976D01*
X107211961Y-100752976D02*
X107307200Y-100848214D01*
X107307200Y-100848214D02*
X107354819Y-100943452D01*
X107354819Y-100943452D02*
X107354819Y-101133928D01*
X107354819Y-99752976D02*
X107354819Y-100324404D01*
X107354819Y-100038690D02*
X106354819Y-100038690D01*
X106354819Y-100038690D02*
X106497676Y-100133928D01*
X106497676Y-100133928D02*
X106592914Y-100229166D01*
X106592914Y-100229166D02*
X106640533Y-100324404D01*
D11*
%TO.C,Rpullup1*%
X96437742Y-100977500D02*
X96912258Y-100977500D01*
X96437742Y-102022500D02*
X96912258Y-102022500D01*
%TO.C,BZ1*%
X121300000Y-111000000D02*
G75*
G02*
X109100000Y-111000000I-6100000J0D01*
G01*
X109100000Y-111000000D02*
G75*
G02*
X121300000Y-111000000I6100000J0D01*
G01*
%TO.C,R2*%
X107937742Y-104977500D02*
X108412258Y-104977500D01*
X107937742Y-106022500D02*
X108412258Y-106022500D01*
%TO.C,Q2*%
X98990000Y-100562500D02*
X98990000Y-99912500D01*
X98990000Y-100562500D02*
X98990000Y-101212500D01*
X102110000Y-100562500D02*
X102110000Y-99912500D01*
X102110000Y-100562500D02*
X102110000Y-101212500D01*
X99040000Y-101725000D02*
X98710000Y-101965000D01*
X98710000Y-101485000D01*
X99040000Y-101725000D01*
G36*
X99040000Y-101725000D02*
G01*
X98710000Y-101965000D01*
X98710000Y-101485000D01*
X99040000Y-101725000D01*
G37*
%TO.C,C2*%
X108134420Y-106990000D02*
X108415580Y-106990000D01*
X108134420Y-108010000D02*
X108415580Y-108010000D01*
%TO.C,Rg1*%
X107937742Y-100977500D02*
X108412258Y-100977500D01*
X107937742Y-102022500D02*
X108412258Y-102022500D01*
%TO.C,C3*%
X96865580Y-106990000D02*
X96584420Y-106990000D01*
X96865580Y-108010000D02*
X96584420Y-108010000D01*
%TO.C,C1*%
X96865580Y-102990000D02*
X96584420Y-102990000D01*
X96865580Y-104010000D02*
X96584420Y-104010000D01*
%TO.C,U1*%
X102525000Y-103035000D02*
X100575000Y-103035000D01*
X102525000Y-103035000D02*
X104475000Y-103035000D01*
X102525000Y-108155000D02*
X100575000Y-108155000D01*
X102525000Y-108155000D02*
X104475000Y-108155000D01*
X99825000Y-103130000D02*
X99585000Y-102800000D01*
X100065000Y-102800000D01*
X99825000Y-103130000D01*
G36*
X99825000Y-103130000D02*
G01*
X99585000Y-102800000D01*
X100065000Y-102800000D01*
X99825000Y-103130000D01*
G37*
%TO.C,BT1*%
X109957455Y-121500000D02*
X109957455Y-120500000D01*
X110457455Y-121000000D02*
X109457455Y-121000000D01*
X110957454Y-124100000D02*
G75*
G02*
X110957454Y-117900000I-11499999J3100000D01*
G01*
%TO.C,R1*%
X107937742Y-102977500D02*
X108412258Y-102977500D01*
X107937742Y-104022500D02*
X108412258Y-104022500D01*
%TO.C,Rg2*%
X96587742Y-104977500D02*
X97062258Y-104977500D01*
X96587742Y-106022500D02*
X97062258Y-106022500D01*
%TO.C,Q1*%
X102940000Y-100562500D02*
X102940000Y-99912500D01*
X102940000Y-100562500D02*
X102940000Y-101212500D01*
X106060000Y-100562500D02*
X106060000Y-99912500D01*
X106060000Y-100562500D02*
X106060000Y-101212500D01*
X106340000Y-99640000D02*
X106010000Y-99400000D01*
X106340000Y-99160000D01*
X106340000Y-99640000D01*
G36*
X106340000Y-99640000D02*
G01*
X106010000Y-99400000D01*
X106340000Y-99160000D01*
X106340000Y-99640000D01*
G37*
%TD*%
%LPC*%
D12*
%TO.C,Rpullup1*%
X95850000Y-101500000D03*
X97500000Y-101500000D03*
%TD*%
D13*
%TO.C,BZ1*%
X119000000Y-111000000D03*
D14*
X111400000Y-111000000D03*
%TD*%
D12*
%TO.C,R2*%
X107350000Y-105500000D03*
X109000000Y-105500000D03*
%TD*%
D15*
%TO.C,Q2*%
X99600000Y-101500000D03*
X101500000Y-101500000D03*
X100550000Y-99625000D03*
%TD*%
D16*
%TO.C,C2*%
X107500000Y-107500000D03*
X109050000Y-107500000D03*
%TD*%
D12*
%TO.C,Rg1*%
X107350000Y-101500000D03*
X109000000Y-101500000D03*
%TD*%
D17*
%TO.C,C3*%
X97500000Y-107500000D03*
X95950000Y-107500000D03*
%TD*%
%TO.C,C1*%
X97500000Y-103500000D03*
X95950000Y-103500000D03*
%TD*%
D18*
%TO.C,U1*%
X100050000Y-103690000D03*
X100050000Y-104960000D03*
X100050000Y-106230000D03*
X100050000Y-107500000D03*
X105000000Y-107500000D03*
X105000000Y-106230000D03*
X105000000Y-104960000D03*
X105000000Y-103690000D03*
%TD*%
D13*
%TO.C,BT1*%
X111857455Y-121000000D03*
D14*
X91057455Y-121000000D03*
%TD*%
D12*
%TO.C,R1*%
X107350000Y-103500000D03*
X109000000Y-103500000D03*
%TD*%
%TO.C,Rg2*%
X96000000Y-105500000D03*
X97650000Y-105500000D03*
%TD*%
D19*
%TO.C,Q1*%
X105450000Y-99625000D03*
X103550000Y-99625000D03*
X104500000Y-101500000D03*
%TD*%
D20*
%TO.C,SW1*%
X101763577Y-117000000D03*
D21*
X104303577Y-117000000D03*
X106843577Y-117000000D03*
%TD*%
%LPD*%
M02*
